<svg width="14" height="14" viewBox="0 0 14 14" fill="none" xmlns="http://www.w3.org/2000/svg">
<path fill-rule="evenodd" clip-rule="evenodd" d="M5.6486 9.50399C7.77788 9.50399 9.50399 7.77788 9.50399 5.6486C9.50399 3.51932 7.77788 1.79321 5.6486 1.79321C3.51932 1.79321 1.79321 3.51932 1.79321 5.6486C1.79321 7.77788 3.51932 9.50399 5.6486 9.50399ZM5.6486 11.2972C8.76824 11.2972 11.2972 8.76824 11.2972 5.6486C11.2972 2.52896 8.76824 0 5.6486 0C2.52896 0 0 2.52896 0 5.6486C0 8.76824 2.52896 11.2972 5.6486 11.2972Z" fill="black"/>
<path fill-rule="evenodd" clip-rule="evenodd" d="M12.7321 13.6282L8.2491 9.14519L9.51709 7.8772L14.0001 12.3602L12.7321 13.6282Z" fill="black"/>
</svg>
